<svg width="72" height="72" viewBox="0 0 72 72" fill="none" xmlns="http://www.w3.org/2000/svg">
<g clip-path="url(#clip0_8_787)">
<path d="M72 58.9091H58.9091V72H52.3636V58.9091H39.2727V52.3636H52.3636V39.2727H58.9091V52.3636H72V58.9091ZM58.9091 16.3636V36H49.0909V49.0909H36V62.1818H49.0909V72H9.81818C7.21424 72 4.71695 70.9656 2.87568 69.1243C1.03441 67.2831 0 64.7858 0 62.1818V9.81818C0 7.21424 1.03441 4.71695 2.87568 2.87568C4.71695 1.03441 7.21424 0 9.81818 0H45.8182C46.3263 0 46.8274 0.118293 47.2818 0.345511C47.7362 0.572729 48.1315 0.902631 48.4364 1.30909L58.2545 14.4C58.6794 14.9665 58.9091 15.6555 58.9091 16.3636ZM36 29.4545H16.3636V36H36V29.4545ZM42.5455 16.3636H16.3636V22.9091H42.5455V16.3636Z" fill="#33295E"/>
</g>
<defs>
<clipPath id="clip0_8_787">
<rect width="72" height="72" fill="white"/>
</clipPath>
</defs>
</svg>
