<svg width="72" height="72" viewBox="0 0 72 72" fill="none" xmlns="http://www.w3.org/2000/svg">
<path d="M43.2253 35.2319C43.2253 38.901 40.2073 41.8817 36.4987 41.8817C32.7872 41.8817 29.7721 38.8981 29.7721 35.2319C29.7721 31.5627 32.7902 28.5821 36.4987 28.5821C40.2103 28.5821 43.2253 31.5657 43.2253 35.2319ZM48.0887 33.0869H50.7109V37.3945H48.0887C47.6691 37.3945 47.303 37.6741 47.1958 38.0713C46.9458 38.9982 46.5708 39.8868 46.0916 40.7165C45.8773 41.0784 45.9398 41.5286 46.2374 41.8229L48.0887 43.653L45.0111 46.6955L43.1598 44.8653C42.8622 44.5711 42.4068 44.5122 42.0407 44.7211C41.2013 45.2037 40.3025 45.5715 39.3649 45.8216C38.9601 45.9275 38.6803 46.2894 38.6803 46.7043V49.2965H34.3229V46.7043C34.3229 46.2894 34.0401 45.9275 33.6383 45.8216C32.7007 45.5744 31.8018 45.2037 30.9626 44.7299C30.5965 44.5181 30.1411 44.5799 29.8434 44.8741L27.9921 46.7043L24.9145 43.6618L26.7658 41.8317C27.0634 41.5374 27.123 41.0872 26.9116 40.7253C26.4235 39.8955 26.0515 39.007 25.7985 38.0801C25.6914 37.6799 25.3253 37.4034 24.9056 37.4034H22.2834V33.0957H24.9056C25.3252 33.0957 25.6913 32.8161 25.7985 32.4189C26.0485 31.492 26.4235 30.6034 26.9027 29.7737C27.117 29.4118 27.0545 28.9616 26.7569 28.6673L24.9056 26.8372L27.9832 23.7947L29.8345 25.6249C30.1321 25.9191 30.5875 25.978 30.9536 25.7691C31.793 25.2865 32.6918 24.9187 33.6294 24.6686C34.0342 24.5627 34.314 24.2008 34.314 23.7859V21.1937H38.6714V23.7859C38.6714 24.2008 38.9542 24.5627 39.356 24.6686C40.2936 24.9158 41.1924 25.2865 42.0317 25.7691C42.3978 25.9809 42.8532 25.9191 43.1509 25.6249L45.0022 23.7947L48.0798 26.8372L46.2285 28.6673C45.9309 28.9616 45.8713 29.4118 46.0827 29.7737C46.5708 30.6035 46.9428 31.492 47.1869 32.4189C47.303 32.8073 47.669 33.0869 48.0887 33.0869ZM45.0796 35.2319C45.0796 30.5535 41.2311 26.7488 36.4985 26.7488C31.7659 26.7488 27.9174 30.5533 27.9174 35.2319C27.9174 39.9102 31.7599 43.7233 36.4985 43.7233C41.2309 43.7233 45.0796 39.9188 45.0796 35.2319ZM57.2236 35.2319C57.2236 43.306 52.5001 50.2879 45.6336 53.6278V59.3006H27.3642V53.6278C20.4977 50.297 15.7741 43.315 15.7741 35.2319C15.7741 23.9181 25.0547 14.7442 36.4985 14.7442C47.9423 14.7442 57.2236 23.9188 57.2236 35.2319ZM52.5596 38.3066V32.1689C52.5596 31.6628 52.1489 31.2568 51.637 31.2568H48.7797C48.5743 30.6477 48.3213 30.0445 48.0326 29.4707L50.0505 27.4758C50.4077 27.1227 50.4077 26.5431 50.0505 26.1811L45.6604 21.8411C45.4848 21.6675 45.2497 21.5704 45.0056 21.5704C44.7615 21.5704 44.5264 21.6675 44.3508 21.8411L42.3328 23.836C41.7465 23.5418 41.1453 23.2946 40.5202 23.0975V20.2728C40.5202 19.7667 40.1095 19.3607 39.5976 19.3607H33.3889C32.8769 19.3607 32.4662 19.7667 32.4662 20.2728V23.0975C31.8412 23.3005 31.2399 23.5506 30.6536 23.836L28.6357 21.8411C28.4601 21.6675 28.2249 21.5704 27.9809 21.5704C27.7368 21.5704 27.5017 21.6675 27.3261 21.8411L22.9359 26.1811C22.7603 26.3547 22.6621 26.5872 22.6621 26.8284C22.6621 27.0697 22.7603 27.3022 22.9359 27.4758L24.9539 29.4707C24.6562 30.0445 24.4062 30.6447 24.2068 31.2567H21.3495C20.8375 31.2567 20.4268 31.6628 20.4268 32.1688V38.3066C20.4268 38.8127 20.8376 39.2187 21.3495 39.2187H24.2068C24.4122 39.8366 24.6652 40.431 24.9539 41.0106L22.9359 43.0055C22.7603 43.1791 22.6621 43.4116 22.6621 43.6529C22.6621 43.8941 22.7603 44.1266 22.9359 44.3002L27.3261 48.6402C27.5017 48.8138 27.7368 48.9109 27.9809 48.9109C28.2249 48.9109 28.4601 48.8138 28.6357 48.6402L30.6536 46.6453C31.234 46.9395 31.8412 47.1867 32.4603 47.3838V50.2085C32.4603 50.7146 32.871 51.1206 33.3829 51.1206H39.5916C40.1036 51.1206 40.5143 50.7146 40.5143 50.2085V47.3838C41.1304 47.1808 41.7406 46.9307 42.321 46.6453L44.3389 48.6402C44.5145 48.8138 44.7496 48.9109 44.9937 48.9109C45.2378 48.9109 45.4729 48.8138 45.6485 48.6402L50.0387 44.3002C50.3958 43.9471 50.3958 43.3675 50.0387 43.0055L48.0207 41.0106C48.3183 40.431 48.5684 39.8366 48.7678 39.2187H51.6251C52.1489 39.2187 52.5596 38.8098 52.5596 38.3066ZM27.3649 63.4494C27.3649 65.3413 28.9126 66.8685 30.8235 66.8685H42.1751C44.0889 66.8685 45.6336 65.3385 45.6336 63.4494V61.1514H27.3643L27.3649 63.4494ZM31.9961 70.1757C31.9961 71.1849 32.8176 72 33.8415 72H39.1514C40.1723 72 40.9968 71.1879 40.9968 70.1757V68.7075H31.9966L31.9961 70.1757ZM6.83644 22.6147C8.30678 23.4592 10.1194 23.1649 11.2623 22.0262C11.2921 22.0498 11.3218 22.0792 11.3605 22.0939L14.1107 23.668C12.1821 27.2607 11.1701 31.2917 11.1701 35.3818C11.1701 35.8879 11.5808 36.294 12.0927 36.294C12.6046 36.294 13.0154 35.8879 13.0154 35.3818C13.0154 31.2978 14.1047 27.2934 16.1554 23.7833C16.1703 23.7598 16.1792 23.7392 16.1852 23.7156C16.2001 23.6774 16.2239 23.6479 16.2298 23.6097C16.2388 23.5862 16.2388 23.5567 16.2447 23.5332C16.2537 23.5038 16.2596 23.4655 16.2685 23.4361V23.3537C16.2685 23.3243 16.2775 23.2949 16.2685 23.2625C16.2685 23.2331 16.2596 23.2095 16.2537 23.186C16.2447 23.1566 16.2447 23.1271 16.2388 23.0889C16.2298 23.0654 16.2239 23.0448 16.215 23.0212C16.2001 22.9918 16.1912 22.9535 16.1763 22.9241C16.1673 22.9006 16.1525 22.8859 16.1376 22.8653C16.1227 22.8358 16.1078 22.8064 16.084 22.7741C16.0691 22.7505 16.0542 22.7358 16.0304 22.7211C16.0066 22.6917 15.9858 22.6681 15.953 22.6446C15.9382 22.6299 15.9144 22.6152 15.8935 22.6005C15.8638 22.5769 15.834 22.5563 15.8012 22.5328L12.2594 20.5143C12.2296 20.4908 12.1909 20.4849 12.1522 20.4702C12.5927 18.9195 11.9469 17.2012 10.4676 16.3567C8.71454 15.3563 6.48224 15.9507 5.4703 17.6749C4.48806 19.3992 5.09226 21.6143 6.83644 22.6147ZM66.1171 48.2343C64.6706 47.4045 62.8937 47.6605 61.7448 48.7551C61.7061 48.7256 61.6674 48.6962 61.6228 48.6727L58.8726 47.0985C60.8013 43.5059 61.8133 39.4839 61.8133 35.3847C61.8133 34.8786 61.4025 34.4726 60.8906 34.4726C60.3787 34.4726 59.968 34.8787 59.968 35.3847C59.968 39.4688 58.8846 43.4731 56.8279 46.9833C56.813 47.0068 56.8041 47.0274 56.7981 47.051C56.7832 47.0892 56.7594 47.1186 56.7535 47.1569C56.7446 47.1804 56.7446 47.2098 56.7386 47.2334C56.7297 47.2628 56.7237 47.3011 56.7148 47.3305V47.4129C56.7148 47.4423 56.7059 47.4717 56.7148 47.5041C56.7148 47.5335 56.7237 47.5571 56.7297 47.5806C56.7386 47.61 56.7386 47.6394 56.7446 47.6777C56.7535 47.7012 56.7594 47.7218 56.7684 47.7454C56.7832 47.7748 56.7922 47.813 56.8071 47.8425C56.816 47.866 56.8309 47.8807 56.8458 47.9013C56.8606 47.9307 56.8755 47.9602 56.8993 47.9925C56.9142 48.0161 56.9291 48.0308 56.9529 48.0455C56.9767 48.0749 56.9976 48.0985 57.0303 48.122C57.0452 48.1367 57.069 48.1514 57.0898 48.1661C57.1196 48.1897 57.1493 48.2103 57.1821 48.2338L60.7239 50.2523C60.7537 50.267 60.7775 50.2817 60.8073 50.2905C60.3132 51.8647 60.9591 53.6213 62.4622 54.4864C64.2064 55.4868 66.4476 54.9071 67.4684 53.177C68.4566 51.4498 67.8613 49.2347 66.1171 48.2343ZM48.2318 15.2946C51.7916 17.3278 54.762 20.2673 56.8274 23.7838C56.9792 24.0397 57.2322 24.1986 57.506 24.228H57.515C57.5536 24.2369 57.5923 24.2369 57.637 24.2369C57.7144 24.2369 57.7977 24.228 57.8721 24.2075C57.887 24.1986 57.9108 24.1927 57.9257 24.1927C57.9495 24.1839 57.9644 24.178 57.9852 24.1692C58.0239 24.1545 58.0537 24.1398 58.0924 24.1162C58.0924 24.1162 58.1013 24.1162 58.1013 24.1074L61.6372 22.0889C61.6759 22.0654 61.7057 22.0448 61.7354 22.0213C62.8784 23.1658 64.6999 23.4601 66.1702 22.6156C67.9233 21.6152 68.5156 19.4055 67.5126 17.6753C66.5006 15.9423 64.2654 15.3568 62.5152 16.3483C61.036 17.1928 60.3811 18.9023 60.8246 20.453C60.7859 20.4677 60.7472 20.4824 60.7175 20.4971L57.9673 22.0712C55.7737 18.6228 52.7467 15.7362 49.1812 13.6943C48.7407 13.4383 48.1752 13.5884 47.9162 14.0268C47.6394 14.4829 47.7824 15.0387 48.2318 15.2946ZM24.766 55.473C21.2002 53.4398 18.2358 50.5003 16.1787 46.9756C16.1787 46.9668 16.1698 46.9609 16.1639 46.9609C15.9347 46.5931 15.4853 46.4342 15.0804 46.5695C15.0715 46.5695 15.0656 46.5784 15.0566 46.5784C15.0031 46.5931 14.9584 46.6166 14.9108 46.646L11.3689 48.6645C11.3302 48.6881 11.3005 48.7087 11.2707 48.741C10.1278 47.6023 8.31516 47.3169 6.84482 48.1525C5.09172 49.1529 4.49945 51.3686 5.5114 53.0928C6.52335 54.8259 8.76456 55.4114 10.5087 54.411C11.988 53.5665 12.6428 51.8512 12.1933 50.2976C12.232 50.2829 12.2618 50.2682 12.3005 50.2446L15.0596 48.6705C17.2473 52.1189 20.2712 55.0055 23.8457 57.0474C23.9915 57.1298 24.1493 57.168 24.31 57.168C24.6315 57.168 24.941 57.0032 25.1107 56.709C25.3577 56.2882 25.2065 55.729 24.766 55.473ZM24.2987 15.4151C24.4594 15.4151 24.6201 15.3769 24.763 15.2945C28.3138 13.2613 32.3677 12.1903 36.4955 12.1903C37.0075 12.1903 37.4182 11.7842 37.4182 11.2782V7.23238C37.4182 7.19413 37.4093 7.15588 37.4033 7.11174C38.9808 6.71158 40.1475 5.29626 40.1475 3.61621C40.1475 1.6213 38.5106 0 36.4896 0C34.4716 0 32.8316 1.61828 32.8316 3.61621C32.8316 5.30221 33.9983 6.71161 35.5758 7.11174C35.5669 7.14999 35.5609 7.18824 35.5609 7.23238V10.3807C31.4297 10.5308 27.3936 11.6754 23.8284 13.7174C23.3879 13.9734 23.2331 14.5295 23.4921 14.968C23.6677 15.2504 23.9802 15.4151 24.2987 15.4151Z" fill="#33295E"/>
</svg>
