<svg width="72" height="72" viewBox="0 0 72 72" fill="none" xmlns="http://www.w3.org/2000/svg">
<g clip-path="url(#clip0_8_783)">
<path d="M34.4348 6.26086C31.8414 6.26086 29.7391 8.36317 29.7391 10.9565V15.6522C29.7391 16.554 30.502 17.2722 31.4022 17.2174C31.4415 17.215 31.508 17.2218 31.6468 17.2174C32.5136 17.1895 32.8804 17.1812 34.2391 17.2662C36.1305 17.3847 37.5652 19.2962 37.5652 21.2283C37.5652 23.1604 36.1305 24.8762 34.2391 24.9946C32.8804 25.0796 32.5136 25.0713 31.6468 25.0435C31.508 25.0391 31.4415 25.0458 31.4022 25.0435C30.502 24.9887 29.7391 25.2113 29.7391 26.6087C29.7391 28.1739 31.8414 29.7391 34.4348 29.7391H40.6957H56.3478C58.9412 29.7391 61.0435 27.6369 61.0435 25.0435V17.2174V10.9565C61.0435 8.36317 58.9412 6.26086 56.3478 6.26086H34.4348ZM20.3478 9.3913C18.6189 9.3913 17.2174 11.1432 17.2174 13.3043C17.2174 15.4654 18.6189 17.2174 20.3478 17.2174C22.0768 17.2174 23.4783 15.4654 23.4783 13.3043C23.4783 11.1432 22.0768 9.3913 20.3478 9.3913ZM33.75 18.7338L23.0381 18.7826H21.6686H18.8314H17.2174C13.7596 18.7826 10.9565 21.5858 10.9565 25.0435V28.9565C10.9565 30.2531 12.0077 31.3043 13.3043 31.3043C14.0476 31.3043 14.6351 30.914 15.0652 30.3749C15.6289 30.9227 16.3694 31.3042 17.2174 31.3043H21.913C23.6414 31.3036 25.0435 29.9022 25.0435 28.1739V23.5761L33.75 23.5271C34.9889 23.5271 36 22.5593 36 21.3261V20.9348C36 19.7017 34.9889 18.7338 33.75 18.7338ZM10.9565 34.4348C9.22758 34.4348 7.82609 36.1867 7.82609 38.3478C7.82609 40.5089 9.22758 42.2609 10.9565 42.2609C12.6855 42.2609 14.087 40.5089 14.087 38.3478C14.087 36.1867 12.6855 34.4348 10.9565 34.4348ZM36 34.4348C34.2711 34.4348 32.8696 36.1867 32.8696 38.3478C32.8696 40.5089 34.2711 42.2609 36 42.2609C37.7289 42.2609 39.1304 40.5089 39.1304 38.3478C39.1304 36.1867 37.7289 34.4348 36 34.4348ZM61.0435 34.4348C59.3145 34.4348 57.913 36.1867 57.913 38.3478C57.913 40.5089 59.3145 42.2609 61.0435 42.2609C62.7724 42.2609 64.1739 40.5089 64.1739 38.3478C64.1739 36.1867 62.7724 34.4348 61.0435 34.4348ZM7.82609 43.8261C6.09719 43.8261 4.69565 45.2276 4.69565 46.9565V48.5217H17.2174V46.9565C17.2174 45.2276 15.8159 43.8261 14.087 43.8261H7.82609ZM32.8696 43.8261C31.1406 43.8261 29.7391 45.2276 29.7391 46.9565V48.5217H42.2609V46.9565C42.2609 45.2276 40.8594 43.8261 39.1304 43.8261H32.8696ZM57.913 43.8261C56.1841 43.8261 54.7826 45.2276 54.7826 46.9565V48.5217H67.3043V46.9565C67.3043 45.2276 65.9029 43.8261 64.1739 43.8261H57.913ZM4.69565 50.087C2.10232 50.087 0 52.1892 0 54.7826V61.0435C0 63.6369 2.10232 65.7391 4.69565 65.7391H17.2174C19.8108 65.7391 21.913 63.6369 21.913 61.0435V54.7826C21.913 52.1892 19.8108 50.087 17.2174 50.087H4.69565ZM29.7391 50.087C27.1457 50.087 25.0435 52.1892 25.0435 54.7826V61.0435C25.0435 63.6369 27.1457 65.7391 29.7391 65.7391H42.2609C44.8543 65.7391 46.9565 63.6369 46.9565 61.0435V54.7826C46.9565 52.1892 44.8543 50.087 42.2609 50.087H29.7391ZM54.7826 50.087C52.1892 50.087 50.087 52.1892 50.087 54.7826V61.0435C50.087 63.6369 52.1892 65.7391 54.7826 65.7391H67.3043C69.8978 65.7391 72 63.6369 72 61.0435V54.7826C72 52.1892 69.8978 50.087 67.3043 50.087H54.7826Z" fill="#33295E"/>
</g>
<defs>
<clipPath id="clip0_8_783">
<rect width="72" height="72" fill="white"/>
</clipPath>
</defs>
</svg>
