<svg width="72" height="72" viewBox="0 0 72 72" fill="none" xmlns="http://www.w3.org/2000/svg">
<path fill-rule="evenodd" clip-rule="evenodd" d="M41.8775 27.1738C44.3113 27.6937 46.63 28.6445 48.722 29.9804L50.3896 29.1407L53.0094 27.8199L55.0844 29.8772L57.1635 31.9306L55.8288 34.5229L54.9802 36.173C56.3305 38.2445 57.2917 40.5403 57.8173 42.9498L59.5932 43.5173L62.3893 44.419V50.233L59.5956 51.1299L57.8197 51.7022C57.2922 54.1117 56.3301 56.4073 54.9794 58.479L55.8288 60.1291L57.1635 62.7174L55.0844 64.7748L53.0094 66.8281L50.3896 65.5113L48.722 64.6676C46.6303 66.0048 44.3115 66.9569 41.8775 67.4782L41.2992 69.2347L40.3928 72H34.5133L33.6069 69.2347L33.0318 67.4782C32.1448 67.2867 31.2711 67.0394 30.416 66.7376C31.0891 65.3281 31.4924 63.8073 31.6056 62.2523C34.8271 63.4876 38.3637 63.67 41.6976 62.7727C45.0315 61.8754 47.9875 59.9457 50.1329 57.2659C52.2784 54.5861 53.5005 51.2971 53.6204 47.8803C53.7404 44.4636 52.7518 41.0986 50.7995 38.278C48.8471 35.4573 46.0335 33.3292 42.7706 32.2052C39.5077 31.0812 35.9668 31.0203 32.6664 32.0314C29.366 33.0426 26.4794 35.0726 24.4292 37.8244C22.3789 40.5762 21.2728 43.9052 21.2727 47.324C21.2727 47.8463 21.2975 48.3558 21.3481 48.867C20.5064 48.6959 19.6493 48.6102 18.7901 48.6114C16.5925 48.608 14.4312 49.1666 12.5159 50.233V44.419L15.3097 43.5173L17.0856 42.9498C17.6115 40.5398 18.5737 38.2439 19.9259 36.173L19.0749 34.5229L17.7401 31.9306L19.8152 29.8772L21.8943 27.8199L24.514 29.1407L26.1776 29.9804C28.2731 28.6444 30.595 27.6936 33.0318 27.1738L33.6101 25.4126L34.5165 22.6472H40.396L41.3024 25.4126L41.8775 27.1738ZM18.7901 50.6441C20.9245 50.644 23.011 51.2702 24.7857 52.4435C26.5604 53.6168 27.9436 55.2845 28.7604 57.2358C29.5772 59.1871 29.7909 61.3342 29.3744 63.4056C28.9579 65.4771 27.93 67.3797 26.4207 68.8731C24.9113 70.3664 22.9884 71.3832 20.8949 71.7951C18.8015 72.2069 16.6317 71.9951 14.6599 71.1866C12.6881 70.3781 11.003 69.0091 9.81748 67.2528C8.63202 65.4965 7.99952 63.4317 8 61.3197C8.00085 58.4883 9.13799 55.7732 11.1614 53.7713C13.1848 51.7694 15.9288 50.6446 18.7901 50.6441ZM12.4822 61.6435C12.3812 61.542 12.3014 61.4217 12.2474 61.2896C12.1933 61.1575 12.1661 61.0162 12.1673 60.8737C12.1696 60.5858 12.2874 60.3107 12.4947 60.1089C12.5973 60.0089 12.7189 59.9299 12.8524 59.8765C12.9859 59.823 13.1287 59.796 13.2727 59.7972C13.5636 59.7995 13.8416 59.916 14.0456 60.1212L17.3102 63.4127L23.7801 56.9233C23.9849 56.7211 24.2621 56.6071 24.5513 56.6062C24.8406 56.6052 25.1186 56.7173 25.3248 56.9181C25.5309 57.1188 25.6486 57.3921 25.6523 57.6783C25.6559 57.9645 25.5452 58.2406 25.3442 58.4464L18.0754 65.7336C17.8679 65.9352 17.588 66.0471 17.2971 66.0447C17.0063 66.0423 16.7283 65.9258 16.5241 65.7209L12.4822 61.6435ZM58.4983 11.5748L56.7432 14.8211L52.9925 15.5355L55.5713 18.1833L55.0973 21.9361L58.4405 20.3272L61.896 21.9361L61.3851 18.2897L64 15.5331L60.3359 14.887L58.4983 11.5748ZM16.4078 11.5748L14.6568 14.8211L10.9061 15.5355L13.4841 18.1857L13.01 21.9384L16.3533 20.3296L19.8096 21.9384L19.2979 18.2921L21.9136 15.5355L18.2495 14.887L16.4078 11.5748ZM37.453 0L34.4547 5.56319L28.0257 6.77679L32.4462 11.3193L31.6272 17.7444L37.3576 14.987L43.2788 17.7444L42.4013 11.4978L46.8755 6.77837L40.6054 5.67431L37.453 0ZM37.453 39.917C38.4293 39.917 39.3837 40.2035 40.1955 40.7402C41.0072 41.2769 41.6399 42.0398 42.0135 42.9323C42.3872 43.8249 42.4849 44.807 42.2944 45.7545C42.104 46.702 41.6338 47.5724 40.9435 48.2555C40.2532 48.9386 39.3736 49.4038 38.4161 49.5923C37.4585 49.7807 36.466 49.684 35.564 49.3143C34.662 48.9446 33.8911 48.3185 33.3487 47.5153C32.8063 46.712 32.5168 45.7676 32.5168 44.8016C32.5167 44.1601 32.6443 43.5249 32.8923 42.9322C33.1404 42.3395 33.504 41.801 33.9624 41.3474C34.4207 40.8938 34.965 40.534 35.5639 40.2886C36.1628 40.0432 36.8048 39.9169 37.453 39.917ZM47.3376 37.543C45.2435 35.4792 42.5428 34.1247 39.6226 33.6737C36.7025 33.2228 33.7131 33.6986 31.0831 35.033C28.4532 36.3673 26.3179 38.4916 24.9836 41.1011C23.6493 43.7106 23.1844 46.6712 23.6558 49.5583C25.3138 50.2295 26.8113 51.2373 28.0514 52.5165C28.7704 52.0053 29.531 51.5539 30.3254 51.1672C31.1928 50.7474 32.096 50.4045 33.0245 50.1425C32.8497 49.9981 32.6796 49.8465 32.5168 49.6853C31.5412 48.7194 30.877 47.489 30.608 46.1496C30.3391 44.8102 30.4775 43.422 31.0058 42.1604C31.5341 40.8988 32.4285 39.8206 33.576 39.062C34.7235 38.3033 36.0726 37.8985 37.4526 37.8985C38.8327 37.8985 40.1817 38.3033 41.3293 39.062C42.4768 39.8206 43.3712 40.8988 43.8995 42.1604C44.4278 43.422 44.5662 44.8102 44.2973 46.1496C44.0283 47.489 43.3641 48.7194 42.3885 49.6853C42.2281 49.8441 42.0564 49.9981 41.8815 50.1425C44.7287 50.9424 47.2983 52.5028 49.3084 54.6524C50.9812 51.9996 51.697 48.8644 51.3391 45.7575C50.9812 42.6507 49.5708 39.7553 47.3376 37.543ZM31.5518 59.8656C34.1515 61.0631 37.0605 61.4405 39.8843 60.9467C42.7081 60.4529 45.3101 59.1117 47.3376 57.105C47.5573 56.8868 47.7699 56.6605 47.9737 56.4296C45.704 53.8617 42.5555 52.2143 39.1329 51.8041C35.7104 51.3939 32.2554 52.2497 29.4318 54.2072C30.5901 55.8973 31.3175 57.8399 31.5518 59.8688V59.8656Z" fill="#33295E"/>
</svg>
