<svg width="72" height="72" viewBox="0 0 72 72" fill="none" xmlns="http://www.w3.org/2000/svg">
<g clip-path="url(#clip0_8_786)">
<path d="M35.9654 9.42807C32.1523 12.4988 27.1 14.9593 20.9212 16.754C20.4775 24.4608 21.3431 40.8785 35.9654 45.3506C50.51 40.8927 51.4172 24.4657 50.9965 16.7502C44.8254 14.956 39.7774 12.4972 35.9654 9.42807ZM41.9864 28.3665H37.0776V33.2758H34.8335V28.3665H29.9247V26.1224H34.8335V21.2142H37.0776V26.1224H41.9864V28.3665Z" fill="#33295E"/>
<path d="M57.3018 12.1234C57.2345 11.6746 56.8866 11.3043 56.449 11.2033C40.5726 7.59048 37.0046 0.791072 36.9709 0.723754C36.7914 0.342239 36.3986 0.0954285 35.961 0.0954285C35.5347 0.0954285 35.142 0.342239 34.9512 0.723754C34.9176 0.802304 31.5067 7.55679 15.4842 11.2033C15.0355 11.3043 14.6989 11.6746 14.6316 12.1234C14.5754 12.46 9.53758 45.8849 35.703 52.2579C35.7815 52.2804 35.8713 52.2915 35.961 52.2915C36.0508 52.2915 36.1406 52.2804 36.2304 52.2579C62.3957 45.8849 57.3579 12.46 57.3018 12.1234ZM36.2779 47.599C36.176 47.6286 36.0697 47.6434 35.9645 47.6434C35.8593 47.6434 35.7541 47.6286 35.6511 47.599C18.6324 42.6574 18.1514 23.7206 18.7344 15.8084C18.7694 15.3356 19.097 14.9362 19.5529 14.8097C27.7948 12.5229 32.6281 9.36506 35.2315 7.11884C35.6522 6.75506 36.2768 6.75561 36.6975 7.11829C39.301 9.36397 44.132 12.5207 52.3663 14.8069C52.8243 14.934 53.1519 15.3351 53.1848 15.809C53.7436 23.7266 53.2133 42.6743 36.2779 47.599Z" fill="#33295E"/>
<path d="M66.0754 63.805H46.6533V71.9059H66.0754V63.805Z" fill="#33295E"/>
<path d="M72 26.7561V38.3129C72 39.2104 71.9102 40.1193 71.7307 40.9945L70.1486 48.9271C69.8681 50.1613 69.251 51.2496 68.3422 52.1024L62.5189 57.5778L62.5302 61.561H49.167V58.9018C49.167 52.8611 52.0479 47.7636 55.3829 45.2132C56.662 44.2147 57.8514 43.1038 58.7826 41.7798C61.7111 37.5835 61.5989 37.5611 62.2721 37.045C64.3254 37.2245 65.3688 39.5022 64.2468 41.1627C62.6423 43.5526 60.4095 46.8962 60.3422 46.9972L62.1936 48.2539C62.2497 48.1753 64.3703 45.0112 65.9748 42.6213C67.0743 40.972 67.2539 38.7953 66.2216 37.1123C65.7728 36.3829 65.1669 35.8219 64.4825 35.4293V26.8795C64.4825 25.0842 65.683 23.4574 67.4334 23.0871C69.8457 22.5709 72 24.4111 72 26.7561Z" fill="#33295E"/>
<path d="M25.4367 63.805H6.01465V71.906H25.4367V63.805Z" fill="#33295E"/>
<path d="M0.0898438 26.7561V38.3129C0.0898438 40.4939 0.471678 41.2145 1.9412 48.9271C2.2217 50.1613 2.83879 51.2496 3.74762 52.1024L9.57089 57.5778L9.55965 61.561H22.9228V58.9018C22.9228 54.3577 21.3408 50.1052 18.4797 46.8962C16.5483 44.7542 15.0999 44.3285 13.3072 41.7798C10.3787 37.5835 10.4909 37.5611 9.8177 37.045C7.76446 37.2245 6.72099 39.5022 7.84301 41.1627C9.44748 43.5526 11.6803 46.8962 11.7476 46.9972L9.89624 48.2539C9.84016 48.1753 7.71953 45.0112 6.11506 42.6213C5.01551 40.972 4.83595 38.7953 5.86825 37.1123C6.31701 36.3829 6.92295 35.8219 7.60736 35.4293V26.8795C7.60736 25.0842 6.40679 23.4574 4.65645 23.0871C2.24409 22.5709 0.0898438 24.4111 0.0898438 26.7561Z" fill="#33295E"/>
</g>
<defs>
<clipPath id="clip0_8_786">
<rect width="72" height="72" fill="white"/>
</clipPath>
</defs>
</svg>
