<?xml version="1.0" encoding="UTF-8"?>
<svg id="Layer_2" data-name="Layer 2" xmlns="http://www.w3.org/2000/svg" viewBox="0 0 277.5 71.34">
  <defs>
    <style>
      .cls-1 {
        fill: #fff;
        font-family: Satoshi-Black, Satoshi;
        font-size: 10.4px;
        font-weight: 800;
      }

      .cls-2 {
        letter-spacing: -.03em;
      }

      .cls-3 {
        letter-spacing: -.03em;
      }

      .cls-4 {
        fill: #f06a6d;
      }

      .cls-4, .cls-5 {
        stroke-width: 0px;
      }

      .cls-6 {
        letter-spacing: -.03em;
      }

      .cls-7 {
        letter-spacing: -.12em;
      }

      .cls-8 {
        letter-spacing: -.04em;
      }

      .cls-9 {
        letter-spacing: -.05em;
      }

      .cls-5 {
        fill: #332a5e;
      }
    </style>
  </defs>
  <g id="Layer_1-2" data-name="Layer 1">
    <g>
      <path class="cls-4" d="M277.5,69.43h-66.1l-18.66-18.66V15.16h66.1c7.29,7.29,11.37,11.37,18.66,18.66v35.61Z"/>
      <g>
        <rect class="cls-5" y="1" width="11.08" height="9.06"/>
        <g>
          <rect class="cls-5" y="15.63" width="11.08" height="54.38"/>
          <path class="cls-5" d="M57.12,15.16h-25.04l-10.63,10.63v6.76h11.08v-2.17l4.14-4.14h15.86l4.14,4.14v3.47l-35.22,9.77v17.09l10.63,10.63h16.58l7.1-11.08h-19.09l-4.14-4.14v-4.08l24.14-6.7v14.91h-.01v11.08h11.09V25.79l-10.63-10.63Z"/>
          <polygon class="cls-5" points="78 15.16 89.11 15.16 89.11 26.24 89.08 26.24 89.08 70 78 70 78 15.16"/>
          <polygon class="cls-5" points="149.7 25.79 149.7 69.96 138.62 69.96 138.62 30.38 134.49 26.24 123.53 26.24 119.39 30.38 119.39 70 108.31 70 108.31 30.38 104.17 26.24 90.25 26.24 97.36 15.16 108.76 15.16 113.85 20.25 118.94 15.16 139.07 15.16 149.7 25.79"/>
          <polygon class="cls-5" points="175.32 59.84 171.18 55.7 171.18 26.24 182.77 26.24 182.77 15.16 171.18 15.16 171.18 0 160.1 0 160.1 60.29 170.73 70.92 200.5 70.92 190 59.84 175.32 59.84"/>
        </g>
      </g>
      <text class="cls-1" transform="translate(214.25 30.59)"><tspan class="cls-3" x="0" y="0">I</tspan><tspan class="cls-8" x="2.97" y="0">n</tspan><tspan class="cls-3" x="8.9" y="0">stitu</tspan><tspan class="cls-6" x="29.01" y="0">t</tspan><tspan class="cls-3" x="32.45" y="0">e of</tspan><tspan class="cls-9" x="2.56" y="10">A</tspan><tspan class="cls-2" x="9.29" y="10">d</tspan><tspan class="cls-9" x="15.64" y="10">v</tspan><tspan class="cls-2" x="20.95" y="10">anced</tspan><tspan class="cls-2"><tspan x="-14.75" y="20">Mobile Phone</tspan></tspan><tspan class="cls-7" x="-4.81" y="30">T</tspan><tspan class="cls-3" x=".41" y="30">echnology</tspan></text>
    </g>
  </g>
</svg>