<?xml version="1.0" encoding="UTF-8"?>
<svg id="Layer_2" data-name="Layer 2" xmlns="http://www.w3.org/2000/svg" viewBox="0 0 453.98 89.68">
  <defs>
    <style>
      .cls-1 {
        fill: #fff;
        stroke-width: 0px;
      }
    </style>
  </defs>
  <g id="Layer_1-2" data-name="Layer 1">
    <g>
      <path class="cls-1" d="M337.74,19.95l16.7,23.92,16.7-23.92h12.99v.39l-23.14,33.13,22.65,33.92v.36h-12.87l-16.34-25.13-16.19,25.13h-12.62v-.72l22.26-33.55-22.74-32.53v-.99h12.59ZM312.47,47.22c-.74-4.03-2.21-7.26-4.39-9.69-2.17-2.43-4.75-4.19-7.76-5.3-2.99-1.1-6.08-1.66-9.27-1.66s-6.36.55-9.45,1.66c-3.07,1.1-5.74,2.89-8,5.36-2.27,2.47-3.81,5.68-4.63,9.63h43.52ZM322.66,51.4c.08.32.12.65.12.99v1.08c0,1.32-.12,2.56-.36,3.7h-56.46c0,4.35,1.16,8.1,3.49,11.22,2.35,3.13,5.27,5.54,8.76,7.22,3.51,1.69,6.9,2.53,10.17,2.53,4.11,0,7.95-.9,11.53-2.71,3.59-1.83,6.37-4.62,8.34-8.4h12.46c-1.65,4.86-4.15,8.91-7.52,12.16-3.37,3.23-7.21,5.65-11.53,7.25-4.31,1.61-8.78,2.41-13.39,2.41-4.27,0-8.47-.71-12.58-2.14-4.09-1.44-7.78-3.6-11.07-6.47-3.29-2.89-5.9-6.49-7.82-10.8-1.93-4.31-2.89-9.35-2.89-15.11s.96-10.77,2.89-15.05c1.93-4.27,4.53-7.84,7.82-10.71,3.29-2.87,6.98-5.03,11.07-6.47,4.11-1.44,8.4-2.17,12.85-2.17,5.5,0,10.77,1.17,15.83,3.52,5.06,2.35,9.27,5.85,12.64,10.5,3.37,4.63,5.26,10.44,5.66,17.42ZM231.41,54.23c0-5.34-1.09-9.75-3.28-13.24-2.17-3.49-4.96-6.12-8.37-7.88-3.41-1.79-7.01-2.68-10.8-2.68-4.92,0-9.1,1.15-12.55,3.46-3.45,2.31-6.11,5.27-7.97,8.88-1.85,3.61-2.77,7.43-2.77,11.47,0,4.51.9,8.59,2.71,12.22,1.81,3.61,4.45,6.45,7.94,8.52,3.51,2.05,7.68,3.07,12.52,3.07,3.79,0,7.41-.86,10.86-2.59,3.45-1.75,6.26-4.38,8.43-7.91,2.19-3.53,3.28-7.96,3.28-13.3ZM243.48,1.35v86.28h-12.07v-9c-2.39,3.61-5.66,6.18-9.81,7.7-4.15,1.52-8.33,2.33-12.52,2.41-7.72,0-14.23-1.51-19.53-4.54-5.3-3.05-9.28-7.2-11.95-12.46-2.67-5.28-4-11.19-4-17.76s1.37-12.2,4.12-17.33c2.75-5.14,6.77-9.22,12.07-12.25,5.32-3.05,11.71-4.57,19.17-4.57,4.11,0,8.17.64,12.16,1.93,3.99,1.26,7.42,3.87,10.29,7.82V1.35h12.07ZM151.81,47.22c-.74-4.03-2.21-7.26-4.39-9.69-2.17-2.43-4.75-4.19-7.76-5.3-2.99-1.1-6.08-1.66-9.27-1.66s-6.36.55-9.45,1.66c-3.07,1.1-5.74,2.89-8,5.36-2.27,2.47-3.81,5.68-4.63,9.63h43.52ZM164.51,51.4c.08.32.12.65.12.99v1.08c0,1.32-.12,2.56-.36,3.7h-56.46c0,4.35,1.16,8.1,3.49,11.22,2.35,3.13,5.27,5.54,8.76,7.22,3.51,1.69,6.9,2.53,10.17,2.53,4.11,0,7.95-.9,11.53-2.71,3.59-1.83,6.37-4.62,8.34-8.4h12.46c-1.65,4.86-4.15,8.91-7.52,12.16-3.37,3.23-7.21,5.65-11.53,7.25s-8.78,2.41-13.39,2.41c-4.27,0-8.47-.71-12.58-2.14-4.09-1.44-7.78-3.6-11.07-6.47-3.29-2.89-5.9-6.49-7.82-10.8-1.93-4.31-2.89-9.35-2.89-15.11s.96-10.77,2.89-15.05c1.93-4.27,4.53-7.84,7.82-10.71,3.29-2.87,6.98-5.03,11.07-6.47,4.11-1.44,8.4-2.17,12.85-2.17,5.5,0,10.77,1.17,15.83,3.52,5.06,2.35,9.27,5.85,12.64,10.5,3.37,4.63,5.26,10.44,5.66,17.42ZM71.62,31.66c-1.16-4.75-3.29-8.51-6.38-11.26-3.07-2.77-6.56-4.74-10.47-5.93-3.89-1.18-7.72-1.78-11.5-1.78-5.76,0-10.94,1.37-15.56,4.12-4.59,2.75-8.25,6.53-10.95,11.35-2.71,4.79-4.06,10.27-4.06,16.43s1.35,11.72,4.06,16.61c2.71,4.88,6.36,8.72,10.95,11.53,4.61,2.79,9.8,4.18,15.56,4.18,3.61,0,7.2-.68,10.77-2.05,3.57-1.36,6.83-3.42,9.78-6.17,2.97-2.75,5.32-6.26,7.04-10.53h-32.53v-12.7h47.46c-.34,3.69-.67,6.79-.99,9.3-.32,2.51-.81,4.5-1.47,5.99v-.12c-1.97,5.6-5.11,10.53-9.42,14.81-4.31,4.25-9.17,7.59-14.57,10.02-5.38,2.43-10.73,3.64-16.07,3.64-6.16,0-11.88-1.08-17.15-3.25-5.26-2.19-9.84-5.27-13.75-9.24-3.89-3.99-6.93-8.7-9.12-14.11-2.17-5.44-3.25-11.41-3.25-17.91s1.1-12.45,3.31-17.91c2.23-5.48,5.31-10.2,9.24-14.17,3.95-3.99,8.54-7.07,13.75-9.24,5.24-2.19,10.89-3.28,16.97-3.28,4.19,0,8.51.55,12.94,1.66,4.43,1.1,8.62,2.89,12.55,5.36,3.95,2.47,7.38,5.74,10.29,9.81,2.93,4.07,4.97,9.02,6.11,14.84h-13.54Z"/>
      <g>
        <g id="_Radial_Repeat_" data-name="&amp;lt;Radial Repeat&amp;gt;">
          <path class="cls-1" d="M427.82,86.98l-8.9,2.7-4.86-15.97-11.08,12.71-7.01-6.12,15.32-17.56c1.55,1.26,3.42,2.16,5.51,2.56,1.51.29,3.01.29,4.44.04l6.58,21.64Z"/>
        </g>
        <g id="_Radial_Repeat_-2" data-name="&amp;lt;Radial Repeat&amp;gt;">
          <path class="cls-1" d="M408.17,58.94l-18.55,12.94-5.32-7.62,13.69-9.56-15.51-6.61,3.65-8.56,21.43,9.15c-.26.69-.47,1.41-.61,2.16-.54,2.87-.05,5.7,1.22,8.1Z"/>
        </g>
        <g id="_Radial_Repeat_-3" data-name="&amp;lt;Radial Repeat&amp;gt;">
          <path class="cls-1" d="M421.86,17.57l-2.07,23.22c-3.66-.2-7.12,1.23-9.57,3.74l-18.04-13.64,5.6-7.42,13.32,10.07,1.5-16.79,9.26.82Z"/>
        </g>
        <g id="_Radial_Repeat_-4" data-name="&amp;lt;Radial Repeat&amp;gt;">
          <path class="cls-1" d="M453.79,44.78l-22.71,5.2c-.92-3.43-3.28-6.36-6.52-7.95l7.39-21.37,8.79,3.04-5.46,15.78,16.43-3.77,2.08,9.07Z"/>
        </g>
        <g id="_Radial_Repeat_-5" data-name="&amp;lt;Radial Repeat&amp;gt;">
          <path class="cls-1" d="M453.8,64.62l-16.69-.32,8.66,14.47-7.98,4.77-11.97-20c2.75-1.77,4.79-4.62,5.45-8.09.04-.19.07-.38.1-.56l22.61.43-.18,9.3Z"/>
        </g>
      </g>
    </g>
  </g>
</svg>