<svg width="72" height="72" viewBox="0 0 72 72" fill="none" xmlns="http://www.w3.org/2000/svg">
<g clip-path="url(#clip0_8_785)">
<path d="M9.29265 29.881H14.8719V32.1311H8.64405C8.24225 32.1311 7.86915 31.9187 7.66828 31.5685L6.56622 29.6628C6.35671 29.703 6.14147 29.726 5.92047 29.726C4.02632 29.726 2.48512 28.1847 2.48512 26.2906C2.48512 24.3964 4.02632 22.8552 5.92047 22.8552C7.81463 22.8552 9.35582 24.3964 9.35582 26.2906C9.35582 27.1487 9.04013 27.9322 8.51782 28.5349L9.29265 29.881ZM5.15131 33.0294C4.35923 32.5702 3.43511 32.4468 2.55111 32.685C1.66431 32.9203 0.920936 33.4915 0.461743 34.2865C0.00255027 35.0814 -0.117986 36.0056 0.117348 36.8924C0.355556 37.7793 0.923838 38.5197 1.71879 38.9789C1.71879 38.9789 1.72166 38.9789 1.72166 38.9818C2.25834 39.2917 2.84665 39.4381 3.42641 39.4381C4.61458 39.4381 5.77116 38.8211 6.40543 37.7247C6.51736 37.5324 6.60633 37.3344 6.67521 37.1306H14.8716V34.8777H6.67227C6.4111 34.1229 5.89175 33.457 5.15131 33.0294ZM42.1189 9.29134L43.4649 8.51356C44.0676 9.0359 44.8511 9.35158 45.7092 9.35158C47.6034 9.35158 49.1446 7.81036 49.1446 5.91618C49.1446 4.02486 47.6034 2.48651 45.7092 2.48651C43.8151 2.48651 42.2739 4.02486 42.2739 5.91618C42.2739 6.13717 42.2968 6.35242 42.337 6.56193L40.4313 7.66401C40.0812 7.86778 39.8688 8.23801 39.8688 8.63979V14.8677H42.1188L42.1189 9.29134ZM26.2911 9.35448C27.1492 9.35448 27.9327 9.03877 28.5354 8.51645L29.8785 9.29423V14.8735H32.1314V8.64562C32.1314 8.24381 31.9162 7.87071 31.5689 7.66984L29.6632 6.56776C29.7034 6.35824 29.7264 6.143 29.7264 5.922C29.7264 4.03069 28.1852 2.49233 26.291 2.49233C24.3969 2.49233 22.8557 4.03069 22.8557 5.922C22.8557 7.81332 24.3969 9.35448 26.2911 9.35448ZM29.8785 62.7076L28.5354 63.4854C27.9327 62.9631 27.1492 62.6474 26.2911 62.6474C24.3969 62.6474 22.8557 64.1886 22.8557 66.0828C22.8557 67.977 24.3969 69.5182 26.2911 69.5182C28.1852 69.5182 29.7264 67.977 29.7264 66.0828C29.7264 65.8618 29.7035 65.6465 29.6633 65.437L31.569 64.335C31.9191 64.1341 32.1315 63.7638 32.1315 63.3592V57.1313H29.8786L29.8785 62.7076ZM64.3327 31.568L65.4347 29.6623C65.6442 29.7025 65.8595 29.7254 66.0805 29.7254C67.9746 29.7254 69.5158 28.1842 69.5158 26.29C69.5158 24.3958 67.9746 22.8546 66.0805 22.8546C64.1863 22.8546 62.6451 24.3958 62.6451 26.29C62.6451 27.1482 62.9608 27.9317 63.4831 28.5344L62.7054 29.8804H57.1261V32.1305H63.354C63.7586 32.1305 64.1318 31.9153 64.3327 31.568ZM34.2868 6.40972C34.4762 6.51878 34.6742 6.60775 34.8722 6.67663V14.8702H37.1252V6.67369C37.8771 6.41252 38.5429 5.89305 38.9705 5.1526C39.9176 3.5138 39.3522 1.40722 37.7164 0.463027C36.9243 0.00382709 36.0002 -0.119584 35.1162 0.118627C34.2294 0.353965 33.486 0.925129 33.0268 1.7201C32.0797 3.35602 32.6452 5.46266 34.2868 6.40972ZM7.66828 40.4361L6.56622 42.3418C6.35671 42.3016 6.14147 42.2786 5.92047 42.2786C4.02632 42.2786 2.48512 43.817 2.48512 45.7083C2.48512 47.6025 4.02632 49.1437 5.92047 49.1437C7.81463 49.1437 9.35582 47.6025 9.35582 45.7083C9.35582 44.853 9.04013 44.0695 8.51782 43.4668L9.29558 42.1237H14.8748V39.8707H8.64698C8.24231 39.8707 7.86915 40.0859 7.66828 40.4361ZM66.0805 42.2786C65.8596 42.2786 65.6443 42.3016 65.4348 42.3417L64.3327 40.436C64.1318 40.0859 63.7616 39.8706 63.3598 39.8706H57.132V42.1236H62.7112L63.489 43.4667C62.9667 44.0694 62.651 44.8529 62.651 45.7082C62.651 47.6024 64.1922 49.1436 66.0863 49.1436C67.9805 49.1436 69.5217 47.6024 69.5217 45.7082C69.5131 43.8169 67.9747 42.2786 66.0805 42.2786ZM71.5392 34.2826C71.08 33.4877 70.3396 32.9194 69.4556 32.6812C68.5717 32.443 67.6447 32.5664 66.8497 33.0256C66.1294 33.4417 65.5956 34.0932 65.3258 34.871H57.1264V37.1239H65.3199C65.3917 37.3277 65.4806 37.5257 65.5925 37.718C66.2268 38.8172 67.3834 39.4342 68.5716 39.4342C69.1513 39.4342 69.7396 39.2879 70.2792 38.9779C71.0741 38.5187 71.6424 37.7783 71.8806 36.8914C72.1188 36.0046 71.9984 35.0776 71.5392 34.2826ZM54.876 18.0527V53.9452C54.876 54.4589 54.4599 54.8751 53.9462 54.8751H18.0542C17.5405 54.8751 17.1243 54.4589 17.1243 53.9452V18.0527C17.1243 17.5476 17.5491 17.1228 18.0542 17.1228H53.9462C54.4513 17.1228 54.876 17.5476 54.876 18.0527ZM51.8827 22.5299C51.8827 21.1982 50.8035 20.1162 49.4748 20.1162H22.5286C21.1998 20.1162 20.1179 21.1982 20.1179 22.5299V49.4736C20.1179 50.8052 21.1999 51.8873 22.5286 51.8873H49.4748C50.8036 51.8873 51.8827 50.8052 51.8827 49.4736V22.5299ZM36.0005 32.2106C33.9111 32.2106 32.2122 33.9096 32.2122 35.9989C32.2122 38.0912 33.9112 39.7902 36.0005 39.7902C38.0898 39.7902 39.7888 38.0883 39.7888 35.9989C39.7888 33.9095 38.0898 32.2106 36.0005 32.2106ZM45.7097 62.6442C44.8515 62.6442 44.068 62.9599 43.4653 63.4822L42.1194 62.7073V57.128H39.8693V63.3559C39.8693 63.7605 40.0817 64.1308 40.4318 64.3317L42.3375 65.4337C42.2973 65.6433 42.2744 65.8585 42.2744 66.0795C42.2744 67.9737 43.8156 69.5149 45.7097 69.5149C47.6039 69.5149 49.1451 67.9737 49.1451 66.0795C49.1451 64.1853 47.6038 62.6442 45.7097 62.6442ZM49.6328 22.5299V49.4736C49.6328 49.5568 49.5582 49.6343 49.475 49.6343H22.5288C22.4456 49.6343 22.371 49.5568 22.371 49.4736V22.5299C22.371 22.4438 22.4427 22.3692 22.5288 22.3692H49.475C49.5554 22.3663 49.6328 22.4438 49.6328 22.5299ZM45.3652 35.9988C45.3652 35.5855 45.3365 35.1722 45.282 34.759L43.9704 34.4634C43.583 34.3744 43.2701 34.0903 43.1467 33.7114C43.0204 33.3182 42.8597 32.9337 42.6703 32.5663C42.4895 32.2133 42.5067 31.7885 42.7191 31.4499L43.4366 30.3134C42.9343 29.659 42.3402 29.0649 41.6802 28.5598L40.5437 29.2773C40.205 29.4897 39.7831 29.5069 39.4273 29.3261C39.057 29.1338 38.6725 28.976 38.2907 28.8554C37.909 28.7349 37.6192 28.4192 37.5302 28.0317L37.2346 26.7172C36.4252 26.6082 35.5672 26.6082 34.7549 26.7172L34.4593 28.0317C34.3704 28.422 34.0834 28.7377 33.6988 28.8554C33.3171 28.976 32.9353 29.1338 32.5651 29.3261C32.2121 29.5069 31.7873 29.4897 31.4487 29.2773L30.3122 28.5598C29.655 29.0649 29.0609 29.659 28.5558 30.3162L29.2733 31.4528C29.4857 31.7914 29.5058 32.2133 29.3221 32.5692C29.1327 32.9365 28.9719 33.3211 28.8457 33.7143C28.7223 34.0903 28.4094 34.3773 28.022 34.4662L26.7133 34.7618C26.6588 35.1694 26.633 35.5855 26.633 36.0017C26.633 36.4178 26.6588 36.834 26.7133 37.2415L28.022 37.5371C28.4094 37.6232 28.7222 37.9102 28.8457 38.289C28.9748 38.688 29.1355 39.0725 29.3221 39.437C29.5058 39.7929 29.4857 40.2177 29.2733 40.5534L28.5558 41.6842C29.0609 42.3415 29.655 42.9355 30.3093 43.4407L31.4458 42.7232C31.7845 42.5079 32.215 42.4907 32.568 42.6772C32.9124 42.858 33.2941 43.0159 33.7045 43.1508C34.0833 43.2713 34.3674 43.5842 34.4564 43.9745L34.752 45.2861C35.5785 45.398 36.408 45.398 37.2316 45.2861L37.5272 43.9745C37.6162 43.587 37.9003 43.2742 38.2791 43.1508C38.6895 43.0159 39.0712 42.858 39.4157 42.6772C39.7715 42.4907 40.1992 42.5079 40.5406 42.7232L41.6772 43.4407C42.3344 42.9384 42.9284 42.3443 43.4307 41.6871L42.7132 40.5534C42.5008 40.2148 42.4807 39.7928 42.6615 39.437C42.8481 39.0754 43.0088 38.688 43.138 38.289C43.2614 37.9102 43.5742 37.6261 43.9616 37.5371L45.2732 37.2415C45.3393 36.8282 45.3652 36.4092 45.3652 35.9988ZM37.1284 65.3274V57.1279H34.8755V65.3244C34.6746 65.3933 34.4766 65.4823 34.2872 65.5942C33.4922 66.0534 32.9239 66.7938 32.6857 67.6807C32.4475 68.5675 32.5709 69.4916 33.0301 70.2866C33.6644 71.383 34.8181 72 36.0063 72C36.586 72 37.1772 71.8536 37.7139 71.5437C38.5088 71.0845 39.0771 70.344 39.3153 69.4572C39.5535 68.5704 39.4301 67.6463 38.9709 66.8512C38.5433 66.1079 37.8774 65.5885 37.1284 65.3274Z" fill="#33295E"/>
</g>
<defs>
<clipPath id="clip0_8_785">
<rect width="72" height="72" fill="white"/>
</clipPath>
</defs>
</svg>
