<svg width="72" height="72" viewBox="0 0 72 72" fill="none" xmlns="http://www.w3.org/2000/svg">
<g clip-path="url(#clip0_8_784)">
<path d="M54.53 37.7964C54.5132 37.7589 54.4931 37.735 54.53 37.7964ZM58.2852 37.7964C58.3254 37.735 58.312 37.7589 58.2852 37.7964ZM65.6548 4.89898C60.5497 -0.301363 52.2692 -0.297958 47.1642 4.89898C44.7992 7.30649 43.3387 10.6347 43.3387 14.3106C43.3387 19.0642 50.0216 30.2495 54.5341 37.7955C54.6212 37.9319 54.5676 37.8535 54.5341 37.7955C54.5944 37.8978 54.7887 38.2252 55.3146 39.0982C55.8138 39.9336 57.0164 39.9336 57.5188 39.0982L58.2926 37.7955C58.2591 37.8535 58.2122 37.9319 58.2926 37.7955C62.8015 30.2524 69.494 19.0675 69.494 14.3106C69.4873 10.638 68.0198 7.30631 65.6548 4.89898ZM35.8076 14.2355C33.111 11.4938 28.7461 11.4938 26.0563 14.2355C23.3597 16.9772 23.3597 21.424 26.0563 24.1622C28.7495 26.9039 33.1111 26.9039 35.8076 24.1622C38.5008 21.4205 38.5008 16.9737 35.8076 14.2355ZM41.9846 40.3568V32.0431C41.1472 31.0678 40.1188 30.2699 38.9598 29.7038C37.7539 29.1172 36.3938 28.7898 34.96 28.7898H26.9004C25.4599 28.7898 24.1033 29.1172 22.8973 29.7038C21.7382 30.2698 20.7132 31.0678 19.8724 32.0431V40.3568H41.9846ZM61.0387 9.51618C58.4794 6.91766 54.3323 6.91766 51.7796 9.51618C49.227 12.1147 49.227 16.3363 51.7796 18.9417C54.3322 21.5403 58.4793 21.5403 61.0387 18.9417C63.5946 16.3364 63.5946 12.1148 61.0387 9.51618ZM56.4093 5.51958C61.1325 5.51958 64.9648 9.42076 64.9648 14.229C64.9648 19.0372 61.1325 22.9383 56.4093 22.9383C51.686 22.9383 47.8537 19.0372 47.8537 14.229C47.8537 9.42076 51.686 5.51958 56.4093 5.51958ZM45.9411 48.2345C46.9192 45.6565 45.0902 42.6557 42.1759 42.6557L19.6718 42.6591L8.23889 49.3735L16.446 63.8528L19.97 61.7862H53.0091L70.0162 48.4733C70.9407 47.7538 71.6074 46.7955 71.872 45.7794C72.7262 42.5364 69.1285 39.9651 66.2879 41.6327L52.4598 49.7623H47.4417C46.3831 51.6788 44.3833 52.9133 42.1758 52.9133H28.9342V50.8672H42.1758C43.854 50.8672 45.3414 49.8031 45.9411 48.2345ZM4.96268 47.6787L-1 51.1842L10.2383 71L16.201 67.4945L15.7186 66.6385H15.7119L5.50182 48.6298L4.96268 47.6787Z" fill="#33295E"/>
</g>
<defs>
<clipPath id="clip0_8_784">
<rect width="72" height="72" fill="white"/>
</clipPath>
</defs>
</svg>
